HIERARCHY
ROOT root
{
	OFFSET	0	13.1	24.9
	CHANNELS 6  Xposition Yposition Zposition Xrotation Yrotation Zrotation
	JOINT spine_1
	{
		OFFSET	0	9.99999	0
		CHANNELS 3  Xrotation Yrotation Zrotation
		JOINT spine_2
		{
			OFFSET	0	112	-10
			CHANNELS 3  Xrotation Yrotation Zrotation
			JOINT spine_3
			{
				OFFSET	0	206.5	19.3
				CHANNELS 3  Xrotation Yrotation Zrotation
				JOINT spine_4
				{
					OFFSET	0	110.4	14.6
					CHANNELS 3  Xrotation Yrotation Zrotation
					JOINT neck_1
					{
						OFFSET	0	71.8	-50.3
						CHANNELS 3  Xrotation Yrotation Zrotation
						JOINT neck_2
						{
							OFFSET	0	86.2	-25.8
							CHANNELS 3  Xrotation Yrotation Zrotation
							JOINT head_ee
							{
								OFFSET	0	179.8	-8.7
								CHANNELS 3  Xrotation Yrotation Zrotation
								End Site
								{
									OFFSET	1	0	0
								}
							}
						}
					}
					JOINT left_clavicle
					{
						OFFSET	-43.2	22.4	-70.8
						CHANNELS 3  Xrotation Yrotation Zrotation
						JOINT left_shoulder
						{
							OFFSET	-93.9	-5.79999	48.7
							CHANNELS 3  Xrotation Yrotation Zrotation
							JOINT left_elbow
							{
								OFFSET	-291.4	-30.8	15.2
								CHANNELS 3  Xrotation Yrotation Zrotation
								JOINT left_lowarm_twist
								{
									OFFSET	-110.7	-3.89999	13.6
									CHANNELS 3  Xrotation Yrotation Zrotation
									JOINT left_hand
									{
										OFFSET	-110.7	-3.89999	13.6
										CHANNELS 3  Xrotation Yrotation Zrotation
										JOINT left_ee
										{
											OFFSET	-80.8	-5.10001	12.1
											CHANNELS 3  Xrotation Yrotation Zrotation
											End Site
											{
												OFFSET	1	0	0
											}
										}
									}
								}
							}
						}
					}
					JOINT right_clavicle
					{
						OFFSET	43.2	22.4	-70.8
						CHANNELS 3  Xrotation Yrotation Zrotation
						JOINT right_shoulder
						{
							OFFSET	93.9	-5.79999	48.7
							CHANNELS 3  Xrotation Yrotation Zrotation
							JOINT right_elbow
							{
								OFFSET	291.4	-30.8	15.2
								CHANNELS 3  Xrotation Yrotation Zrotation
								JOINT right_lowarm_twist
								{
									OFFSET	110.7	-3.89999	13.6
									CHANNELS 3  Xrotation Yrotation Zrotation
									JOINT right_hand
									{
										OFFSET	110.7	-3.89999	13.6
										CHANNELS 3  Xrotation Yrotation Zrotation
										JOINT right_ee
										{
											OFFSET	80.8	-5.10001	12.1
											CHANNELS 3  Xrotation Yrotation Zrotation
											End Site
											{
												OFFSET	1	0	0
											}
										}
									}
								}
							}
						}
					}
				}
			}
		}
	}
	JOINT left_hip
	{
		OFFSET	-82.8	-127.5	0.300001
		CHANNELS 3  Xrotation Yrotation Zrotation
		JOINT left_knee
		{
			OFFSET	-28.2	-396.7	2.2
			CHANNELS 3  Xrotation Yrotation Zrotation
			JOINT left_ankle
			{
				OFFSET	-11.7	-411.3	35.4
				CHANNELS 3  Xrotation Yrotation Zrotation
				JOINT left_toes
				{
					OFFSET	0	-60	-88.6
					CHANNELS 3  Xrotation Yrotation Zrotation
					JOINT left_foot_ee
					{
						OFFSET	-22.5	-16.5	-42.2
						CHANNELS 3  Xrotation Yrotation Zrotation
						End Site
						{
							OFFSET	1	0	0
						}
					}
				}
			}
		}
	}
	JOINT right_hip
	{
		OFFSET	82.8	-127.5	0.300001
		CHANNELS 3  Xrotation Yrotation Zrotation
		JOINT right_knee
		{
			OFFSET	28.2	-396.7	2.2
			CHANNELS 3  Xrotation Yrotation Zrotation
			JOINT right_ankle
			{
				OFFSET	11.7	-411.3	35.4
				CHANNELS 3  Xrotation Yrotation Zrotation
				JOINT right_toes
				{
					OFFSET	0	-60	-88.6
					CHANNELS 3  Xrotation Yrotation Zrotation
					JOINT right_foot_ee
					{
						OFFSET	22.5	-16.5	-42.2
						CHANNELS 3  Xrotation Yrotation Zrotation
						End Site
						{
							OFFSET	1	0	0
						}
					}
				}
			}
		}
	}
}
MOTION
Frames: 12
Frame Time: 0.02
2022.4 623.012 -511.02 -102.318 -86.5874 -104.203 0.031289 0.395105 0.941373 0.0317199 0.334405 0.964604 0.0377068 0.124896 1.01325 0.0363857 0.283345 0.980816 -9.3514 12.0399 6.83714 -9.31202 17.9487 9.55746 -0.0 0.0 -0.0 0.579824 23.4092 3.50278 -31.245 -19.2872 68.5332 0.174231 -4.93304 0.00750507 -5.1739 -0.210777 0.626665 2.997 30.3513 29.0463 -0.0 0.0 -0.0 12.299 21.1045 -24.5387 26.7123 -11.4151 -69.0252 1.8885 43.0872 -0.745616 -63.0666 5.66641 -5.18637 -4.08685 -14.4115 19.9785 0.0 0.0 0.0 33.7504 5.62999 -5.17836 -2.8358 0.106329 0.42217 7.95045 17.5167 -1.15366 -12.196 0.0 0.0 -0.0 0.0 -0.0 -22.2946 18.5124 2.44908 -4.25933 -0.151786 -0.635905 39.3331 6.26717 4.89396 9.05362 -0.0 -0.0 0.0 0.0 0.0 
2041.27 620.436 -520.663 -100.144 -86.4558 -101.74 0.236052 0.342695 0.79552 0.236357 0.291382 0.815712 0.240741 0.117057 0.858244 0.239801 0.251127 0.82899 -9.90097 11.3281 5.41913 -9.92326 17.6736 8.0916 -0.0 0.0 -0.0 0.745299 22.7136 3.66856 -31.2682 -18.715 68.9487 0.172916 -4.89598 0.00739237 -5.55639 -0.228597 0.67221 3.79173 30.7986 34.2468 -0.0 0.0 -0.0 12.0977 20.3309 -24.1346 26.1903 -9.03285 -68.0954 1.85791 42.6209 -0.724814 -62.9488 5.65159 -5.18348 -3.74245 -13.0964 18.4748 0.0 0.0 0.0 33.8661 5.81062 -4.57963 -5.88659 0.197221 0.881496 4.27078 17.1745 -0.625705 -12.8872 0.0 0.0 -0.0 0.0 -0.0 -23.2788 18.6261 3.06505 -3.39185 -0.124717 -0.505526 39.2134 6.60511 4.88927 9.88083 -0.0 -0.0 0.0 0.0 0.0 
2059.46 621.006 -527.356 -103.057 -86.4045 -104.585 0.284213 0.436438 0.760275 0.284451 0.387177 0.786504 0.290003 0.217555 0.84921 0.289166 0.348938 0.804198 -10.7762 11.8381 6.32749 -10.8036 18.1855 9.22667 -0.0 0.0 -0.0 1.13733 22.1459 4.1703 -31.0919 -18.2792 69.4787 0.168609 -4.77461 0.0070294 -6.15426 -0.25706 0.743163 4.26219 31.2709 37.5084 -0.0 0.0 -0.0 11.6704 17.2969 -23.3456 24.769 -6.60537 -69.015 1.88154 42.9817 -0.740867 -64.1537 5.80338 -5.2116 -3.68177 -11.0037 19.2911 0.0 0.0 0.0 34.6951 5.84786 -4.55477 -10.6893 0.290415 1.61238 4.98945 16.894 -0.729008 -11.9971 0.0 0.0 -0.0 0.0 -0.0 -23.9492 18.2236 3.4874 -3.61966 -0.132017 -0.539727 35.896 6.47969 4.58313 10.1354 -0.0 -0.0 0.0 0.0 0.0 
2083.62 624.94 -537.616 -100.707 -86.5242 -102.035 0.382271 0.350821 0.659655 0.38246 0.308136 0.68064 0.386286 0.163135 0.729111 0.38565 0.276235 0.694199 -10.6418 11.7264 5.20753 -10.7089 18.6936 8.1058 -0.0 0.0 -0.0 1.74612 21.804 5.00785 -30.7246 -17.8909 69.0788 0.168295 -4.76576 0.00700326 -5.30699 -0.216943 0.642526 4.91934 31.692 42.3383 -0.0 0.0 -0.0 11.4501 15.3431 -22.9332 22.1106 -4.45699 -69.195 1.87513 42.8843 -0.736504 -65.001 5.91044 -5.22945 -3.81654 -8.89701 21.4423 0.0 0.0 0.0 34.8069 5.56355 -4.80142 -14.7395 0.321199 2.23292 5.06116 16.6906 -0.738941 -11.926 0.0 0.0 -0.0 0.0 -0.0 -25.7771 18.5359 4.25784 -3.05417 -0.113647 -0.454885 31.5676 7.22795 4.16249 12.2443 -0.0 -0.0 0.0 0.0 0.0 
2109.81 627.608 -547.007 -98.816 -86.4621 -99.9297 0.511522 0.296354 0.552484 0.511654 0.260598 0.570221 0.514357 0.140431 0.611017 0.513913 0.235166 0.581172 -11.3012 11.0503 4.92633 -11.3823 17.7015 7.75394 -0.0 0.0 -0.0 2.27846 21.5731 5.75437 -30.5965 -17.5004 68.8588 0.17592 -4.98061 0.00765097 -6.78498 -0.287889 0.817692 5.11543 31.7096 43.8685 -0.0 0.0 -0.0 11.2282 13.7651 -22.4851 19.9038 -2.6754 -69.2961 1.79444 41.6305 -0.682239 -65.6708 5.99523 -5.24244 -3.78574 -7.51879 22.0228 0.0 0.0 0.0 33.0931 5.64208 -4.34124 -15.3034 0.322004 2.31944 10.7239 15.432 -1.53387 -13.3278 0.0 0.0 -0.0 0.0 -0.0 -24.9426 18.342 4.65164 -7.65775 -0.238721 -1.15012 27.3411 6.98815 3.69749 15.6267 -0.0 -0.0 0.0 0.0 0.0 
2132.31 632.361 -555.062 -90.0 -86.5748 -90.0 0.538183 0.148098 0.526062 0.538329 0.114323 0.53442 0.539469 0.00459501 0.546491 0.539064 0.0908442 0.538908 -12.594 11.2872 5.03838 -12.7272 18.2757 8.13422 -0.0 0.0 -0.0 3.12495 20.6689 6.94689 -30.0865 -17.4229 68.3047 0.180723 -5.1159 0.00807364 -7.89531 -0.344153 0.948066 5.08175 31.6666 43.6037 -0.0 0.0 -0.0 10.6918 12.3755 -21.3191 16.4991 0.381269 -70.3922 1.80526 41.8014 -0.689434 -66.4504 6.0941 -5.2563 -3.72728 -6.5454 22.165 0.0 0.0 0.0 31.9914 5.24791 -4.04499 -16.5677 0.320714 2.51341 14.9247 14.1079 -2.0965 -14.5375 0.0 0.0 -0.0 0.0 -0.0 -24.4068 18.4032 5.20719 -10.1707 -0.283308 -1.53312 23.0914 8.24317 3.2168 17.8785 -0.0 -0.0 0.0 0.0 0.0 
2158.31 636.413 -562.083 -90.0001 -87.0847 -90.0001 0.575618 -0.0209863 0.456876 0.575733 -0.0500157 0.454615 0.575361 -0.140086 0.435376 0.575103 -0.0695692 0.452035 -12.8745 11.2728 5.00805 -13.0194 18.3088 8.14737 -0.0 0.0 -0.0 3.94292 20.5784 8.14543 -29.6281 -17.9785 67.2897 0.19744 -5.58625 0.00963274 -9.37461 -0.423028 1.12005 5.04492 31.6357 43.315 -0.0 0.0 -0.0 10.6268 11.0879 -21.1987 13.912 0.0715979 -70.2796 1.78346 41.456 -0.674957 -66.8742 6.14792 -5.26327 -3.78225 -5.85767 22.9462 0.0 0.0 0.0 30.9364 5.54921 -3.00251 -17.5774 0.31661 2.66826 15.4108 14.0351 -2.16038 -15.3337 0.0 0.0 -0.0 0.0 -0.0 -23.7677 18.2992 5.29128 -12.9392 -0.312932 -1.95683 20.8104 8.49713 2.93774 18.7458 -0.0 -0.0 0.0 0.0 0.0 
2187.58 640.865 -567.289 -90.0001 -87.6177 -90.0001 0.806547 -0.0783296 0.282842 0.806587 -0.0961688 0.277285 0.80612 -0.148756 0.252996 0.806046 -0.106933 0.273314 -13.0674 11.0883 3.76739 -13.2629 18.7586 6.95453 -0.0 0.0 -0.0 4.42508 20.1583 8.86138 -28.9067 -17.7016 66.5618 0.216835 -6.13101 0.0116124 -7.99127 -0.349134 0.959282 5.17589 31.4995 44.3603 -0.0 0.0 -0.0 10.2414 8.4835 -20.3718 10.0991 1.56781 -70.5297 1.71265 40.3076 -0.628604 -67.1867 6.18762 -5.26815 -3.77819 -5.22584 23.2745 0.0 0.0 0.0 28.573 5.46234 -2.9383 -17.7824 0.315443 2.69971 18.8151 13.0307 -2.59603 -15.3185 0.0 0.0 -0.0 0.0 -0.0 -22.8526 18.3765 5.34732 -15.6429 -0.322078 -2.37153 18.1604 7.888 2.59005 19.8527 -0.0 -0.0 0.0 0.0 0.0 
2211.8 650.612 -575.226 -90.0001 -88.0562 -90.0001 1.02485 -0.164823 0.0529375 1.02484 -0.167858 0.042342 1.02471 -0.172871 0.00920943 1.02475 -0.169247 0.0363956 -15.992 11.026 5.71349 -16.2112 17.8597 9.24837 -0.0 0.0 -0.0 4.95931 20.0264 9.66198 -27.823 -18.3463 65.7471 0.337944 -9.50381 0.0280923 -7.24177 -0.310729 0.871458 5.21116 31.8352 44.628 -0.0 0.0 -0.0 9.8943 8.51441 -19.6164 7.8326 0.191932 -70.8138 1.5606 37.704 -0.532881 -67.3984 6.21455 -5.27133 -4.04496 -4.78275 25.4636 0.0 0.0 0.0 23.8784 5.55226 -2.20122 -12.7452 0.311524 1.92711 20.2231 12.3669 -2.76996 -19.3906 0.0 0.0 -0.0 0.0 -0.0 -20.9752 18.4413 6.23397 -19.3328 -0.30298 -2.93725 16.6042 8.09038 2.38778 19.7736 -0.0 -0.0 0.0 0.0 0.0 
2233.31 657.611 -582.273 -90.0001 -88.9265 -90.0001 1.17521 -0.216822 -0.118122 1.1752 -0.208866 -0.13168 1.17568 -0.180031 -0.168978 1.1757 -0.204458 -0.138425 -18.4582 11.1068 6.34944 -18.7496 18.0047 10.306 -0.0 0.0 -0.0 5.14669 20.1654 9.93882 -26.2952 -18.9145 65.1848 0.449354 -12.5495 0.0494088 -9.17034 -0.411873 1.09642 4.59364 31.254 39.8929 -0.0 0.0 -0.0 9.10896 7.43196 -17.9312 4.21651 0.758956 -71.3394 1.49995 36.6111 -0.496248 -67.9272 6.28182 -5.27884 -4.28138 -4.41873 27.4264 0.0 0.0 0.0 19.83 4.77508 -1.67914 -9.62386 0.275036 1.44962 23.0864 11.5824 -3.11649 -21.418 0.0 0.0 -0.0 0.0 -0.0 -19.0323 18.5017 5.87001 -26.1572 -0.171968 -3.97567 17.7147 8.2274 2.53597 20.4404 -0.0 -0.0 0.0 0.0 0.0 
2260.55 668.577 -585.882 -11.2866 -89.397 -10.2282 1.09853 -0.32747 -0.510899 1.09863 -0.294297 -0.530701 1.10143 -0.187324 -0.577202 1.10107 -0.27613 -0.540376 -20.0962 11.0098 7.42876 -20.3761 17.4902 11.5527 -0.0 0.0 -0.0 5.81353 20.3314 10.9326 -24.3849 -19.5309 64.6365 0.599705 -16.5456 0.0871972 -9.41406 -0.425193 1.12461 3.94024 30.1207 35.2001 -0.0 0.0 -0.0 8.73079 6.47807 -17.133 1.02161 0.865599 -71.7719 1.35262 33.8222 -0.411261 -67.7978 6.26535 -5.27706 -4.48841 -4.18962 29.1245 0.0 0.0 0.0 14.9014 4.90333 -1.76038 -4.74094 0.16596 0.708458 24.3007 10.7719 -3.25735 -21.3618 0.0 0.0 -0.0 0.0 -0.0 -15.1468 18.9145 3.61367 -34.7471 0.166831 -5.24912 18.5822 7.10196 2.63533 20.5687 -0.0 -0.0 0.0 0.0 0.0 
2280.68 671.119 -592.263 58.2081 -89.2368 59.9325 1.0318 -0.251628 -0.848381 1.03218 -0.197136 -0.862672 1.03528 -0.0274147 -0.884483 1.03423 -0.166753 -0.869055 -19.8593 11.0672 6.97778 -20.1665 17.7948 11.124 -0.0 0.0 -0.0 6.45159 21.7235 11.7959 -22.2098 -19.84 63.477 0.775318 -21.0102 0.14377 -10.8658 -0.507017 1.29132 3.04612 27.9468 28.9874 -0.0 0.0 -0.0 7.89199 6.25493 -15.3705 -2.24324 1.91821 -71.5916 1.30052 32.7896 -0.382649 -68.0623 6.29901 -5.28066 -4.53015 -3.84997 29.6485 0.0 0.0 0.0 11.4953 4.59879 -1.89852 -2.0221 0.0779613 0.300514 24.0533 10.4441 -3.22693 -21.6149 0.0 0.0 -0.0 0.0 -0.0 -12.0862 19.1203 2.29132 -41.9237 0.593668 -6.26546 19.456 5.69548 2.73135 20.8114 -0.0 -0.0 0.0 0.0 0.0 
